<svg xmlns="http://www.w3.org/2000/svg" viewBox="0 0 148.11 130.04"><defs><style>.cls-1,.cls-2,.cls-3,.cls-4,.cls-5{fill:none;}.cls-1{stroke:#020202;}.cls-1,.cls-2,.cls-4,.cls-5{stroke-linecap:round;}.cls-1,.cls-2,.cls-4{stroke-linejoin:round;}.cls-1,.cls-2,.cls-3{stroke-width:1.75px;}.cls-2,.cls-3,.cls-4,.cls-5{stroke:#000;}.cls-3,.cls-5{stroke-miterlimit:10;}.cls-4,.cls-5{stroke-width:1.5px;}</style></defs><title>BiosStratAsset 6</title><g id="Layer_2" data-name="Layer 2"><g id="Layer_1-2" data-name="Layer 1"><circle class="cls-1" cx="25.27" cy="25.27" r="24.39"/><path class="cls-2" d="M40.91,30.78a16.53,16.53,0,0,1-29.38,4.13,17,17,0,0,1-1.89-3.62L12,29.46a2,2,0,0,1,2.94.45,2.12,2.12,0,0,1-.49,2.9l-2.89,2.09"/><circle class="cls-2" cx="122.84" cy="25.27" r="24.39"/><path class="cls-2" d="M138.48,30.78a16.53,16.53,0,0,1-29.38,4.13,17,17,0,0,1-1.89-3.62l2.33-1.83a2,2,0,0,1,2.94.45,2.12,2.12,0,0,1-.49,2.9l-2.89,2.09"/><path class="cls-3" d="M101.29,67.57a37.21,37.21,0,1,1-57,.87L41,57.44l8.43,5.87a37.22,37.22,0,0,1,47-.38l7.89-5.49Z"/><path class="cls-4" d="M93,90.71H52.79A13.63,13.63,0,0,1,66.41,77.07h13A13.63,13.63,0,0,1,93,90.71Z"/><path class="cls-4" d="M93.56,94.43h-42a1.24,1.24,0,0,1-1.3-1.16v-.79a1.24,1.24,0,0,1,1.3-1.16h42a1.24,1.24,0,0,1,1.3,1.16v.79A1.24,1.24,0,0,1,93.56,94.43Z"/><path class="cls-4" d="M97.38,95.05V97a1.86,1.86,0,0,1-1.91,1.81h0A1.86,1.86,0,0,1,93.56,97v-.1a1.91,1.91,0,0,0-3.82,0V97a1.86,1.86,0,0,1-1.91,1.81h0A1.86,1.86,0,0,1,85.93,97v-.1a1.91,1.91,0,0,0-3.82,0V97a1.86,1.86,0,0,1-1.91,1.81h0A1.86,1.86,0,0,1,78.29,97v-.1a1.91,1.91,0,0,0-3.82,0V97a1.86,1.86,0,0,1-1.91,1.81h0A1.86,1.86,0,0,1,70.66,97v-.1a1.91,1.91,0,0,0-3.82,0V97a1.86,1.86,0,0,1-1.91,1.81h0A1.86,1.86,0,0,1,63,97v-.1a1.91,1.91,0,0,0-3.82,0V97a1.86,1.86,0,0,1-1.91,1.81h0A1.86,1.86,0,0,1,55.39,97v-.1a1.91,1.91,0,0,0-3.82,0V97a1.86,1.86,0,0,1-1.91,1.81h0A1.86,1.86,0,0,1,47.76,97V95.05"/><rect class="cls-4" x="50.27" y="100.01" width="44.59" height="1.86"/><path class="cls-4" d="M91,106.83H54.77a2,2,0,0,1-2-2v-2.93H93v2.93A2,2,0,0,1,91,106.83Z"/><line class="cls-5" x1="54.67" y1="83.89" x2="56.55" y2="85.75"/><line class="cls-5" x1="59.69" y1="86.99" x2="61.58" y2="85.13"/><line class="cls-5" x1="62.83" y1="78.93" x2="64.72" y2="82.65"/><line class="cls-5" x1="58.44" y1="83.27" x2="60.32" y2="81.41"/><line class="cls-5" x1="55.3" y1="87.61" x2="58.44" y2="89.47"/><line class="cls-5" x1="68.49" y1="88.85" x2="72.88" y2="86.99"/><line class="cls-5" x1="62.83" y1="86.99" x2="64.72" y2="85.13"/><line class="cls-5" x1="70.37" y1="82.03" x2="73.51" y2="82.03"/><line class="cls-5" x1="68.49" y1="83.89" x2="70.37" y2="85.13"/><line class="cls-5" x1="76.02" y1="83.89" x2="79.16" y2="81.41"/><line class="cls-5" x1="74.77" y1="85.13" x2="77.91" y2="86.99"/><line class="cls-5" x1="81.68" y1="86.37" x2="84.19" y2="86.37"/><line class="cls-5" x1="81.68" y1="83.27" x2="84.82" y2="81.41"/><line class="cls-5" x1="71.63" y1="78.31" x2="75.4" y2="80.17"/><line class="cls-5" x1="67.86" y1="78.93" x2="65.97" y2="79.55"/><line class="cls-5" x1="86.7" y1="88.85" x2="89.21" y2="86.99"/><line class="cls-5" x1="86.07" y1="83.27" x2="87.96" y2="82.03"/><line class="cls-5" x1="79.79" y1="79.55" x2="81.68" y2="78.93"/></g></g></svg>