<svg xmlns="http://www.w3.org/2000/svg" viewBox="0 0 90.96 56"><defs><style>.cls-1,.cls-2,.cls-4{fill:none;stroke:#231f20;stroke-linecap:round;}.cls-1{stroke-linejoin:round;}.cls-1,.cls-2{stroke-width:1.58px;}.cls-2,.cls-4{stroke-miterlimit:10;}.cls-3{fill:#fff;}.cls-4{stroke-width:1.06px;}</style></defs><title>BiosStratAsset 8</title><g id="Layer_2" data-name="Layer 2"><g id="Layer_1-2" data-name="Layer 1"><path class="cls-1" d="M27.59,10.73H46.35A19.73,19.73,0,0,1,66.08,30.46v0a0,0,0,0,1,0,0H7.86a0,0,0,0,1,0,0v0A19.73,19.73,0,0,1,27.59,10.73Z"/><rect class="cls-1" x="4.52" y="30.99" width="64.89" height="5.09" rx="1.9" ry="1.9"/><path class="cls-1" d="M73.15,37.32v2.94A2.78,2.78,0,0,1,70.36,43h0a2.78,2.78,0,0,1-2.78-2.78V40.1a2.78,2.78,0,0,0-2.78-2.78h0A2.78,2.78,0,0,0,62,40.1v.16A2.78,2.78,0,0,1,59.23,43h0a2.78,2.78,0,0,1-2.78-2.78V40.1a2.78,2.78,0,0,0-2.78-2.78h0a2.78,2.78,0,0,0-2.78,2.78v.16A2.78,2.78,0,0,1,48.1,43h0a2.78,2.78,0,0,1-2.78-2.78V40.1a2.78,2.78,0,0,0-2.78-2.78h0a2.78,2.78,0,0,0-2.78,2.78v.16A2.78,2.78,0,0,1,37,43h0a2.78,2.78,0,0,1-2.78-2.78V40.1a2.78,2.78,0,0,0-2.78-2.78h0a2.78,2.78,0,0,0-2.78,2.78v.16A2.78,2.78,0,0,1,25.84,43h0a2.78,2.78,0,0,1-2.78-2.78V40.1a2.78,2.78,0,0,0-2.78-2.78h0a2.78,2.78,0,0,0-2.78,2.78v.16A2.78,2.78,0,0,1,14.71,43h0a2.78,2.78,0,0,1-2.78-2.78V40.1a2.78,2.78,0,0,0-2.78-2.78h0A2.78,2.78,0,0,0,6.36,40.1v.16A2.78,2.78,0,0,1,3.58,43h0A2.78,2.78,0,0,1,.79,40.26V37.32"/><rect class="cls-1" x="4.49" y="44.51" width="64.93" height="3.67"/><path class="cls-1" d="M7.86,48.18H66.08a0,0,0,0,1,0,0v4.15a2.88,2.88,0,0,1-2.88,2.88H10.74a2.88,2.88,0,0,1-2.88-2.88V48.18A0,0,0,0,1,7.86,48.18Z"/><line class="cls-2" x1="11.12" y1="21.23" x2="13.79" y2="24.11"/><line class="cls-2" x1="17.94" y1="25.6" x2="19.96" y2="22.67"/><line class="cls-2" x1="23.16" y1="14.41" x2="25.51" y2="19.95"/><line class="cls-2" x1="16.34" y1="20.59" x2="18.95" y2="17.61"/><line class="cls-2" x1="11.76" y1="26.98" x2="16.34" y2="29.01"/><line class="cls-2" x1="31.15" y1="26.98" x2="36.97" y2="24.13"/><line class="cls-2" x1="22.63" y1="26.98" x2="25.51" y2="24.11"/><line class="cls-2" x1="33.18" y1="17.61" x2="37.65" y2="17.61"/><line class="cls-2" x1="31.15" y1="21.23" x2="33.18" y2="22.67"/><line class="cls-2" x1="41.59" y1="21.23" x2="46.07" y2="17.61"/><line class="cls-2" x1="40.74" y1="24.13" x2="45.22" y2="26.98"/><line class="cls-2" x1="50.22" y1="24.13" x2="53.98" y2="24.13"/><line class="cls-2" x1="50.22" y1="21.23" x2="55.23" y2="18.14"/><line class="cls-2" x1="35.4" y1="12.07" x2="40.74" y2="14.84"/><line class="cls-2" x1="29.55" y1="13.45" x2="27.53" y2="14.84"/><line class="cls-2" x1="58" y1="26.98" x2="61.62" y2="24.96"/><line class="cls-2" x1="57.15" y1="21.23" x2="59.81" y2="19.42"/><line class="cls-2" x1="48.03" y1="14.84" x2="50.22" y2="13.45"/><path class="cls-3" d="M68.15,30.62l22.07,18-3.89,4.77-22.07-18-.17-.19a20.12,20.12,0,0,0,3.85-4.71Z"/><path class="cls-3" d="M63.37,5a19.88,19.88,0,0,1,4.57,25.49,20.12,20.12,0,0,1-3.85,4.71A19.88,19.88,0,1,1,63.37,5ZM62.31,29.79a14.85,14.85,0,1,0-20.9,2.12A14.85,14.85,0,0,0,62.31,29.79Z"/><path class="cls-4" d="M64.08,35.2a19.88,19.88,0,1,1,3.85-4.71,20.12,20.12,0,0,1-3.85,4.71Z"/><circle class="cls-4" cx="50.81" cy="20.4" r="14.85" transform="translate(2.88 46.87) rotate(-50.79)"/><line class="cls-4" x1="64.25" y1="35.39" x2="86.32" y2="53.39"/><polyline class="cls-4" points="68.15 30.62 90.21 48.62 86.32 53.39"/></g></g></svg>