<svg xmlns="http://www.w3.org/2000/svg" viewBox="0 0 53.22 67.1"><defs><style>.cls-1,.cls-2,.cls-4,.cls-5{fill:none;stroke:#231f20;}.cls-1,.cls-2,.cls-5{stroke-miterlimit:10;}.cls-1{stroke-width:1.21px;}.cls-2{stroke-width:1.22px;}.cls-3{fill:#fff;}.cls-4{stroke-linejoin:round;}.cls-4,.cls-5{stroke-width:1.17px;}</style></defs><title>BiosStratAsset 9</title><g id="Layer_2" data-name="Layer 2"><g id="Layer_1-2" data-name="Layer 1"><path class="cls-1" d="M33.56,9.94V61.84a4.66,4.66,0,0,1-4.67,4.66H5.26A4.65,4.65,0,0,1,.6,61.84V5.27A4.66,4.66,0,0,1,5.26.6H28.88a4.67,4.67,0,0,1,4.67,4.67Z"/><rect class="cls-2" x="3.35" y="9.94" width="27.46" height="48.6"/><polygon class="cls-3" points="52.64 9.94 42.01 46.35 27.41 41.56 52.64 9.94"/><polygon class="cls-3" points="52.64 9.94 27.41 41.56 19.49 49.35 14.65 36.25 52.64 9.94"/><polygon class="cls-3" points="52.64 9.94 14.65 36.25 5.08 32 52.64 9.94"/><polygon class="cls-4" points="52.64 9.94 27.41 41.56 42.01 46.35 52.64 9.94 5.08 32 14.65 36.25 52.64 9.94"/><polyline class="cls-5" points="14.65 36.25 19.49 49.35 27.41 41.56"/></g></g></svg>