<svg xmlns="http://www.w3.org/2000/svg" viewBox="0 0 57.54 53.97"><defs><style>.cls-1{fill:#fefefe;}.cls-2{fill:none;stroke:#231f20;stroke-miterlimit:10;stroke-width:1.06px;}</style></defs><title>BiosStratAsset 10</title><g id="Layer_2" data-name="Layer 2"><g id="Layer_1-2" data-name="Layer 1"><path class="cls-1" d="M20.93,32.28a12.18,12.18,0,1,1-8.22-3.19A12.15,12.15,0,0,1,20.93,32.28Zm-.4,11.54L5.82,45.73l1.45-1a.93.93,0,0,0,.25-1.35A1.07,1.07,0,0,0,6,43.21l-1.16.85a7.74,7.74,0,0,0,.94,1.68,8.49,8.49,0,0,0,6.84,3.36A8.31,8.31,0,0,0,20.53,43.82Z"/><path class="cls-1" d="M5.82,45.73l14.71-1.91a8.31,8.31,0,0,1-7.87,5.28A8.49,8.49,0,0,1,5.82,45.73Z"/><path class="cls-1" d="M7.51,43.41a.93.93,0,0,1-.25,1.35l-1.45,1a7.74,7.74,0,0,1-.94-1.68L6,43.21A1.07,1.07,0,0,1,7.51,43.41Z"/><path class="cls-2" d="M24.88,41.26a12.17,12.17,0,1,1-4-9A12.18,12.18,0,0,1,24.88,41.26Z"/><path class="cls-2" d="M5.82,45.73a7.74,7.74,0,0,1-.94-1.68L6,43.21a1.07,1.07,0,0,1,1.47.21.93.93,0,0,1-.25,1.35Z"/><path class="cls-2" d="M20.53,43.82a8.31,8.31,0,0,1-7.87,5.28,8.49,8.49,0,0,1-6.84-3.36"/><path class="cls-1" d="M36,3.72A12.18,12.18,0,1,1,27.75.53,12.15,12.15,0,0,1,36,3.72Zm-.4,11.54L20.87,17.17l1.45-1a.93.93,0,0,0,.25-1.35,1.07,1.07,0,0,0-1.47-.21l-1.16.85a7.74,7.74,0,0,0,.94,1.68,8.49,8.49,0,0,0,6.84,3.36A8.31,8.31,0,0,0,35.58,15.25Z"/><path class="cls-1" d="M20.87,17.17l14.71-1.91a8.31,8.31,0,0,1-7.87,5.28A8.49,8.49,0,0,1,20.87,17.17Z"/><path class="cls-1" d="M22.56,14.85a.93.93,0,0,1-.25,1.35l-1.45,1a7.74,7.74,0,0,1-.94-1.68l1.16-.85A1.07,1.07,0,0,1,22.56,14.85Z"/><path class="cls-2" d="M39.93,12.7a12.17,12.17,0,1,1-4-9A12.18,12.18,0,0,1,39.93,12.7Z"/><path class="cls-2" d="M20.87,17.17a7.74,7.74,0,0,1-.94-1.68l1.16-.85a1.07,1.07,0,0,1,1.47.21.93.93,0,0,1-.25,1.35Z"/><path class="cls-2" d="M35.58,15.25a8.31,8.31,0,0,1-7.87,5.28,8.49,8.49,0,0,1-6.84-3.36"/><path class="cls-1" d="M53.06,32.28a12.18,12.18,0,1,1-8.22-3.19A12.15,12.15,0,0,1,53.06,32.28Zm-.4,11.54L38,45.73l1.45-1a.93.93,0,0,0,.25-1.35,1.07,1.07,0,0,0-1.47-.21L37,44.05A7.74,7.74,0,0,0,38,45.73a8.49,8.49,0,0,0,6.84,3.36A8.31,8.31,0,0,0,52.66,43.82Z"/><path class="cls-1" d="M38,45.73l14.71-1.91a8.31,8.31,0,0,1-7.87,5.28A8.49,8.49,0,0,1,38,45.73Z"/><path class="cls-1" d="M39.65,43.41a.93.93,0,0,1-.25,1.35l-1.45,1A7.74,7.74,0,0,1,37,44.05l1.16-.85A1.07,1.07,0,0,1,39.65,43.41Z"/><path class="cls-2" d="M57,41.26a12.17,12.17,0,1,1-4-9A12.18,12.18,0,0,1,57,41.26Z"/><path class="cls-2" d="M38,45.73A7.74,7.74,0,0,1,37,44.05l1.16-.85a1.07,1.07,0,0,1,1.47.21.93.93,0,0,1-.25,1.35Z"/><path class="cls-2" d="M52.66,43.82a8.31,8.31,0,0,1-7.87,5.28A8.49,8.49,0,0,1,38,45.73"/></g></g></svg>