<svg xmlns="http://www.w3.org/2000/svg" viewBox="0 0 130.16 36.2"><defs><style>.cls-1,.cls-2{fill:none;stroke:#fefefe;stroke-width:1.63px;}.cls-1{stroke-miterlimit:10;}.cls-2{stroke-linecap:round;stroke-linejoin:round;}.cls-3{font-size:24.86px;fill:#fff;font-family:Avenir-Heavy, Avenir;}.cls-4{letter-spacing:0em;}</style></defs><title>BiosStratAsset 4</title><g id="Layer_2" data-name="Layer 2"><g id="Layer_1-2" data-name="Layer 1"><path class="cls-1" d="M34.24,17.53A16.71,16.71,0,1,1,28.81,5.2,16.71,16.71,0,0,1,34.24,17.53Z"/><path class="cls-2" d="M28.28,21a11.42,11.42,0,0,1-10.81,7.24,11.64,11.64,0,0,1-9.38-4.61,10.52,10.52,0,0,1-1.3-2.3l1.6-1.17a1.47,1.47,0,0,1,2,.29,1.28,1.28,0,0,1-.34,1.85l-2,1.33"/><text class="cls-3" transform="translate(43.96 25.43)">Po<tspan class="cls-4" x="30.36" y="0">t</tspan><tspan x="40.05" y="0">luck</tspan></text></g></g></svg>